<svg
    xmlns="http://www.w3.org/2000/svg"
    viewBox="0 0 140 140"
    class="ci__gears"
    data-ci-type="solid"
>
  <path
      class="ci__gears__gear"
      d="m82.513,94.128l-4.263-.284c-1.06-.071-1.923-.864-2.101-1.911-.106-.622-.228-1.238-.367-1.848-.235-1.035.259-2.096,1.211-2.567l3.828-1.893c1.08-.534,1.56-1.813,1.099-2.926l-.988-2.386c-.461-1.113-1.706-1.678-2.847-1.292l-4.047,1.369c-1.005.34-2.104-.06-2.67-.957-.336-.532-.685-1.054-1.049-1.565-.616-.867-.566-2.038.134-2.838l2.815-3.217c.793-.906.748-2.273-.104-3.124l-1.826-1.826c-.852-.852-2.218-.897-3.124-.104l-3.217,2.815c-.8.7-1.971.75-2.838.134-.512-.363-1.033-.713-1.565-1.049-.897-.566-1.297-1.665-.957-2.67l1.369-4.047c.386-1.141-.179-2.386-1.292-2.847l-2.386-.988c-1.113-.461-2.392.02-2.926,1.099l-1.893,3.828c-.471.952-1.532,1.446-2.567,1.211-.61-.139-1.226-.261-1.848-.367-1.047-.178-1.84-1.041-1.911-2.101l-.284-4.263c-.08-1.202-1.078-2.136-2.283-2.136h-2.583c-1.204,0-2.203.934-2.283,2.136l-.284,4.263c-.071,1.06-.864,1.923-1.911,2.101-.622.106-1.238.228-1.848.367-1.035.235-2.096-.259-2.567-1.211l-1.893-3.828c-.534-1.08-1.813-1.56-2.926-1.099l-2.386.988c-1.113.461-1.678,1.706-1.292,2.847l1.369,4.047c.34,1.005-.06,2.104-.957,2.67-.532.336-1.054.685-1.565,1.049-.867.616-2.038.566-2.838-.134l-3.217-2.815c-.906-.793-2.273-.748-3.124.104l-1.826,1.826c-.852.852-.897,2.218-.104,3.124l2.815,3.217c.7.8.75,1.971.134,2.838-.363.512-.713,1.033-1.049,1.565-.566.897-1.665,1.297-2.67.957l-4.047-1.369c-1.141-.386-2.386.179-2.847,1.292l-.988,2.386c-.461,1.113.02,2.392,1.1,2.926l3.828,1.893c.952.471,1.446,1.532,1.211,2.567-.139.61-.261,1.226-.367,1.848-.178,1.047-1.041,1.84-2.101,1.911l-4.263.284c-1.202.08-2.136,1.078-2.136,2.283v2.583c0,1.204.934,2.203,2.136,2.283l4.263.284c1.06.071,1.923.864,2.101,1.911.106.622.228,1.238.367,1.848.235,1.035-.259,2.096-1.211,2.567l-3.828,1.893c-1.08.534-1.56,1.813-1.099,2.926l.988,2.386c.461,1.113,1.706,1.678,2.847,1.292l4.047-1.369c1.005-.34,2.104.06,2.67.957.336.532.685,1.054,1.049,1.565.616.867.566,2.038-.134,2.838l-2.815,3.217c-.793.906-.748,2.273.104,3.124l1.826,1.826c.852.852,2.218.897,3.124.104l3.217-2.815c.8-.7,1.971-.75,2.838-.134.512.363,1.033.713,1.565,1.049.897.566,1.297,1.665.957,2.67l-1.369,4.047c-.386,1.141.179,2.386,1.292,2.847l2.386.988c1.113.461,2.392-.02,2.926-1.099l1.893-3.828c.471-.952,1.532-1.446,2.567-1.211.61.139,1.226.261,1.848.367,1.047.178,1.84,1.041,1.911,2.101l.284,4.263c.08,1.202,1.078,2.136,2.283,2.136h2.583c1.204,0,2.203-.934,2.283-2.136l.284-4.263c.071-1.06.864-1.923,1.911-2.101.622-.106,1.238-.228,1.848-.367,1.035-.235,2.096.259,2.567,1.211l1.893,3.828c.534,1.08,1.813,1.56,2.926,1.099l2.386-.988c1.113-.461,1.678-1.706,1.292-2.847l-1.369-4.047c-.34-1.005.06-2.104.957-2.67.532-.336,1.054-.685,1.565-1.049.867-.616,2.038-.566,2.838.134l3.217,2.815c.906.793,2.273.748,3.124-.104l1.826-1.826c.852-.852.897-2.218.104-3.124l-2.815-3.217c-.7-.8-.75-1.971-.134-2.838.363-.512.713-1.033,1.049-1.565.566-.897,1.665-1.297,2.67-.957l4.047,1.369c1.141.386,2.386-.179,2.847-1.292l.988-2.386c.461-1.113-.02-2.392-1.099-2.926l-3.828-1.893c-.952-.471-1.446-1.532-1.211-2.567.139-.61.261-1.226.367-1.848.178-1.047,1.041-1.84,2.101-1.911l4.263-.284c1.202-.08,2.136-1.078,2.136-2.283v-2.583c0-1.204-.934-2.203-2.136-2.283Zm-38.998,26.422c-13.575.688-24.726-10.463-24.039-24.038.589-11.624,10.034-21.068,21.657-21.657,13.575-.688,24.726,10.463,24.038,24.038-.589,11.624-10.034,21.068-21.657,21.657Z"
      data-ci-fill="true"
      data-ci-stroke="false"
  />
  <path
      class="ci__gears__gear"
      d="m136.912,30.488s-4.236.553-4.236.553c-2.504.285-4.479-4.375-2.467-5.959,1.295-1.251,5.733-3.244,3.893-5.688-.978-1.427-2.32-4.185-4.479-2.859,0,0-3.702,2.132-3.702,2.132-2.202,1.221-5.816-2.322-4.562-4.558.718-1.652,4.058-5.194,1.422-6.748-6.621-5.836-5.507,4.45-10.595,3.146-7.793-1.865,2.48-9.877-7.002-10.436-2.968-.704-3.098,4.017-3.766,5.773-.693,2.421-5.754,2.469-6.45.002-1.12-4.032-.893-7.065-6.299-5.271-3.011.485-1.324,4.898-1.269,6.776.285,2.504-4.375,4.479-5.959,2.467-2.577-3.297-3.529-6.184-7.836-2.458-2.597,1.6.651,5.032,1.42,6.746,1.221,2.202-2.322,5.816-4.558,4.562-1.652-.718-5.194-4.058-6.748-1.422-3.665,4.346-.978,5.149,2.461,7.838,1.973,1.568.073,6.258-2.47,5.957-1.801-.031-6.349-1.76-6.776,1.269-3.107,8.982,8.224,2.545,6.958,10.464.078,4.134-8.151,1.568-7.463,6.05.568,9.49,8.578-.8,10.434,7.008,1.649,3.788-6.93,4.566-4.579,8.442,3.883,7.92,6.782-1.991,10.986,1.145,3.666,2.424,1.223,5.083-.377,7.845-1.724,2.553,4.296,6.496,5.944,3.971,0,0,2.606-3.389,2.606-3.389,1.568-1.974,6.258-.073,5.957,2.47-.031,1.801-1.76,6.349,1.269,6.776,1.701.317,4.6,1.318,5.188-1.145,0,0,1.11-4.124,1.11-4.124.693-2.421,5.754-2.469,6.45-.002,1.12,4.032.893,7.065,6.299,5.271,4.404-1.082-1.116-7.699,2.733-9.209,5.578-4.003,5.546,6.032,10.183,3.86,1.427-.979,4.184-2.321,2.859-4.48,0,0-2.132-3.702-2.132-3.702-1.221-2.202,2.322-5.816,4.558-4.562,3.643,2.059,5.629,4.367,8.183-.726,2.187-4.621-7.869-4.61-3.857-10.187,1.514-3.84,8.128,1.673,9.207-2.729,1.721-5.415-1.063-5.131-5.27-6.298-2.421-.693-2.468-5.755-.001-6.45,0,0,4.126-1.11,4.126-1.11,3.021-.557,1.543-7.661-1.395-7.011Zm-33.094,33.522c-29.325,6.875-40.208-36.429-11.249-44.353,29.324-6.875,40.207,36.429,11.249,44.353Z"
      data-ci-fill="true"
      data-ci-stroke="false"
  />
</svg>