<svg xmlns="http://www.w3.org/2000/svg" viewBox="0 0 140 140">
  <path
      d="m129.98,1c3.55,0,6.68,2.01,8.17,5.24,1.5,3.25.99,6.95-1.33,9.67l-51.07,59.8-.24.28v58.98c0,2.52-2.05,4.03-4.03,4.03-.98,0-1.9-.36-2.66-1.05l-21.36-19.48c-1.87-1.71-2.95-4.14-2.95-6.68v-35.79l-.24-.28L3.19,15.91C.87,13.19.35,9.49,1.85,6.24,3.34,3.01,6.47,1,10.02,1h119.96m0-1H10.02C1.48,0-3.13,10.05,2.42,16.56l51.07,59.8v35.42c0,2.83,1.19,5.52,3.27,7.42l21.36,19.48c.99.91,2.18,1.31,3.33,1.31,2.58,0,5.03-2.02,5.03-5.03v-58.61l51.07-59.8c5.56-6.51.95-16.56-7.59-16.56h0Z"
      stroke="none"
      fill="#000"
      data-ci-fill="true"
      data-ci-stroke="false"
  />
</svg>