<svg xmlns="http://www.w3.org/2000/svg" viewBox="0 0 140 140">
  <path
      d="m43.63,56.37c.68,0,1.24.53,1.29,1.2l.28,4.26c.1,1.52,1.23,2.76,2.74,3.02.6.1,1.2.22,1.79.36.24.06.49.08.74.08,1.26,0,2.39-.7,2.95-1.82l1.89-3.83c.22-.44.66-.72,1.16-.72.17,0,.33.03.49.1l2.39.99c.62.26.94.96.73,1.6l-1.37,4.05c-.49,1.44.08,3.02,1.37,3.84.51.32,1.02.67,1.52,1.02.57.4,1.23.61,1.92.61.79,0,1.56-.29,2.16-.81l3.22-2.81c.23-.21.54-.32.85-.32.34,0,.67.13.91.38l1.83,1.83c.48.48.5,1.25.06,1.76l-2.82,3.22c-1.01,1.15-1.09,2.82-.2,4.08.35.5.7,1.01,1.02,1.52.61.97,1.65,1.54,2.79,1.54.36,0,.71-.06,1.05-.17l4.05-1.37c.13-.05.27-.07.41-.07.52,0,.99.31,1.19.8l.99,2.39c.26.62-.01,1.35-.62,1.65l-3.83,1.89c-1.37.68-2.08,2.19-1.74,3.68.13.59.25,1.2.36,1.79.26,1.51,1.5,2.64,3.02,2.74l4.26.28c.67.04,1.2.61,1.2,1.28v2.58c0,.68-.53,1.24-1.2,1.28l-4.26.28c-1.52.1-2.76,1.23-3.02,2.74-.1.6-.22,1.2-.36,1.79-.34,1.49.38,3.01,1.74,3.68l3.83,1.89c.61.3.88,1.02.62,1.65l-.99,2.39c-.2.48-.67.8-1.19.8-.14,0-.28-.02-.41-.07l-4.05-1.37c-.34-.11-.69-.17-1.05-.17-1.14,0-2.18.58-2.79,1.54-.32.51-.67,1.02-1.02,1.52-.89,1.25-.81,2.93.2,4.08l2.82,3.22c.44.51.42,1.28-.06,1.76l-1.83,1.83c-.24.24-.57.38-.91.38-.31,0-.61-.11-.85-.32l-3.22-2.81c-.6-.52-1.36-.81-2.16-.81-.69,0-1.35.21-1.92.61-.5.35-1.01.7-1.52,1.02-1.3.82-1.86,2.39-1.37,3.84l1.37,4.05c.22.64-.1,1.34-.73,1.6l-2.39.99c-.16.07-.32.1-.49.1-.49,0-.94-.27-1.16-.72l-1.89-3.83c-.56-1.13-1.69-1.82-2.95-1.82-.25,0-.5.03-.74.08-.59.13-1.2.25-1.79.36-1.51.26-2.64,1.5-2.74,3.02l-.28,4.26c-.04.67-.61,1.2-1.29,1.2h-2.58c-.68,0-1.24-.53-1.29-1.2l-.28-4.26c-.1-1.52-1.23-2.76-2.74-3.02-.6-.1-1.2-.22-1.79-.36-.24-.06-.49-.08-.74-.08-1.26,0-2.39.7-2.95,1.82l-1.89,3.83c-.22.44-.66.72-1.16.72-.17,0-.33-.03-.49-.1l-2.39-.99c-.62-.26-.94-.96-.73-1.6l1.37-4.05c.49-1.44-.08-3.02-1.37-3.84-.51-.32-1.02-.67-1.52-1.02-.57-.4-1.23-.61-1.92-.61-.79,0-1.56.29-2.16.81l-3.22,2.81c-.23.21-.54.32-.85.32-.34,0-.67-.13-.91-.38l-1.83-1.83c-.48-.48-.5-1.25-.06-1.76l2.82-3.22c1.01-1.15,1.09-2.82.2-4.08-.35-.5-.7-1.01-1.02-1.52-.61-.97-1.65-1.54-2.79-1.54-.36,0-.71.06-1.05.17l-4.05,1.37c-.13.05-.27.07-.41.07-.52,0-.99-.31-1.19-.8l-.99-2.39c-.26-.62.01-1.35.62-1.65l3.83-1.89c1.37-.68,2.08-2.19,1.74-3.68-.13-.59-.25-1.2-.36-1.79-.26-1.51-1.5-2.64-3.02-2.74l-4.26-.28c-.67-.04-1.2-.61-1.2-1.28v-2.58c0-.68.53-1.24,1.2-1.28l4.26-.28c1.52-.1,2.76-1.23,3.02-2.74.1-.6.22-1.2.36-1.79.34-1.49-.38-3.01-1.74-3.68l-3.83-1.89c-.61-.3-.88-1.02-.62-1.65l.99-2.39c.2-.48.67-.8,1.19-.8.14,0,.28.02.41.07l4.05,1.37c.34.11.69.17,1.05.17,1.14,0,2.18-.58,2.79-1.54.32-.51.67-1.02,1.02-1.52.89-1.25.81-2.93-.2-4.08l-2.82-3.22c-.44-.51-.42-1.28.06-1.76l1.83-1.83c.24-.24.57-.38.91-.38.31,0,.61.11.85.32l3.22,2.81c.6.52,1.36.81,2.16.81.69,0,1.35-.21,1.92-.61.5-.35,1.01-.69,1.52-1.02,1.3-.82,1.86-2.39,1.37-3.84l-1.37-4.05c-.22-.64.1-1.34.73-1.6l2.39-.99c.16-.07.32-.1.49-.1.49,0,.94.27,1.16.72l1.89,3.83c.56,1.13,1.69,1.82,2.95,1.82.25,0,.5-.03.74-.08.59-.13,1.2-.25,1.79-.36,1.51-.26,2.64-1.5,2.74-3.02l.28-4.26c.04-.67.61-1.2,1.29-1.2h2.58m-1.29,65.19c.41,0,.83-.01,1.24-.03,12.07-.61,22-10.54,22.61-22.6.34-6.62-1.99-12.9-6.54-17.68-4.56-4.79-10.7-7.43-17.31-7.43h0c-.41,0-.83.01-1.24.03-12.07.61-22,10.54-22.61,22.6-.34,6.62,1.99,12.9,6.54,17.68,4.56,4.79,10.7,7.43,17.32,7.43m1.29-66.19h-2.58c-1.2,0-2.2.93-2.28,2.14l-.28,4.26c-.07,1.06-.86,1.92-1.91,2.1-.62.11-1.24.23-1.85.37-.17.04-.35.06-.52.06-.86,0-1.66-.48-2.05-1.27l-1.89-3.83c-.4-.8-1.21-1.27-2.05-1.27-.29,0-.59.06-.87.17l-2.39.99c-1.11.46-1.68,1.71-1.29,2.85l1.37,4.05c.34,1-.06,2.1-.96,2.67-.53.34-1.05.69-1.57,1.05-.4.29-.87.43-1.34.43-.54,0-1.07-.19-1.5-.56l-3.22-2.81c-.43-.38-.97-.57-1.51-.57-.59,0-1.17.22-1.62.67l-1.83,1.83c-.85.85-.9,2.22-.1,3.12l2.82,3.22c.7.8.75,1.97.13,2.84-.36.51-.71,1.03-1.05,1.57-.43.68-1.17,1.08-1.94,1.08-.24,0-.49-.04-.73-.12l-4.05-1.37c-.24-.08-.49-.12-.73-.12-.9,0-1.75.54-2.11,1.41l-.99,2.39c-.46,1.11.02,2.39,1.1,2.93l3.83,1.89c.95.47,1.45,1.53,1.21,2.57-.14.61-.26,1.23-.37,1.85-.18,1.05-1.04,1.84-2.1,1.91l-4.26.28C.93,94.19,0,95.19,0,96.39v2.58C0,100.18.93,101.18,2.14,101.26l4.26.28c1.06.07,1.92.86,2.1,1.91.11.62.23,1.24.37,1.85.24,1.04-.26,2.1-1.21,2.57l-3.83,1.89c-1.08.53-1.56,1.81-1.1,2.93l.99,2.39c.36.88,1.21,1.41,2.11,1.41.24,0,.49-.04.73-.12l4.05-1.37c.24-.08.49-.12.73-.12.77,0,1.51.39,1.94,1.08.34.53.69,1.05,1.05,1.57.62.87.57,2.04-.13,2.84l-2.82,3.22c-.79.91-.75,2.27.1,3.12l1.83,1.83c.45.45,1.03.67,1.62.67.54,0,1.07-.19,1.51-.57l3.22-2.81c.43-.37.96-.56,1.5-.56.47,0,.94.14,1.34.43.51.36,1.03.71,1.57,1.05.9.57,1.3,1.66.96,2.67l-1.37,4.05c-.39,1.14.18,2.39,1.29,2.85l2.39.99c.29.12.58.17.87.17.85,0,1.66-.47,2.05-1.27l1.89-3.83c.39-.79,1.2-1.27,2.05-1.27.17,0,.34.02.52.06.61.14,1.23.26,1.85.37,1.05.18,1.84,1.04,1.91,2.1l.28,4.26c.08,1.2,1.08,2.14,2.28,2.14h2.58c1.2,0,2.2-.93,2.28-2.14l.28-4.26c.07-1.06.86-1.92,1.91-2.1.62-.11,1.24-.23,1.85-.37.17-.04.35-.06.52-.06.86,0,1.66.48,2.05,1.27l1.89,3.83c.4.8,1.21,1.27,2.05,1.27.29,0,.59-.06.87-.17l2.39-.99c1.11-.46,1.68-1.71,1.29-2.85l-1.37-4.05c-.34-1,.06-2.1.96-2.67.53-.34,1.05-.69,1.57-1.05.4-.29.87-.43,1.34-.43.54,0,1.07.19,1.5.56l3.22,2.81c.43.38.97.57,1.51.57.59,0,1.17-.22,1.62-.67l1.83-1.83c.85-.85.9-2.22.1-3.12l-2.82-3.22c-.7-.8-.75-1.97-.13-2.84.36-.51.71-1.03,1.05-1.57.43-.68,1.17-1.08,1.94-1.08.24,0,.49.04.73.12l4.05,1.37c.24.08.49.12.73.12.9,0,1.75-.54,2.11-1.41l.99-2.39c.46-1.11-.02-2.39-1.1-2.93l-3.83-1.89c-.95-.47-1.45-1.53-1.21-2.57.14-.61.26-1.23.37-1.85.18-1.05,1.04-1.84,2.1-1.91l4.26-.28c1.2-.08,2.14-1.08,2.14-2.28v-2.58c0-1.2-.93-2.2-2.14-2.28l-4.26-.28c-1.06-.07-1.92-.86-2.1-1.91-.11-.62-.23-1.24-.37-1.85-.24-1.04.26-2.1,1.21-2.57l3.83-1.89c1.08-.53,1.56-1.81,1.1-2.93l-.99-2.39c-.36-.88-1.21-1.41-2.11-1.41-.24,0-.49.04-.73.12l-4.05,1.37c-.24.08-.49.12-.73.12-.77,0-1.51-.39-1.94-1.08-.34-.53-.69-1.05-1.05-1.57-.62-.87-.57-2.04.13-2.84l2.82-3.22c.79-.91.75-2.27-.1-3.12l-1.83-1.83c-.45-.45-1.03-.67-1.62-.67-.54,0-1.07.19-1.51.57l-3.22,2.81c-.43.37-.96.56-1.5.56-.47,0-.94-.14-1.34-.43-.51-.36-1.03-.71-1.57-1.05-.9-.57-1.3-1.66-.96-2.67l1.37-4.05c.39-1.14-.18-2.39-1.29-2.85l-2.39-.99c-.29-.12-.58-.17-.87-.17-.85,0-1.66.47-2.05,1.27l-1.89,3.83c-.39.79-1.2,1.27-2.05,1.27-.17,0-.34-.02-.52-.06-.61-.14-1.23-.26-1.85-.37-1.05-.18-1.84-1.04-1.91-2.1l-.28-4.26c-.08-1.2-1.08-2.14-2.28-2.14h0Zm-1.29,65.19c-13.03,0-23.52-10.89-22.85-24.06.59-11.62,10.04-21.06,21.66-21.65.4-.02.8-.03,1.19-.03,13.03,0,23.52,10.89,22.85,24.06-.59,11.62-10.04,21.06-21.66,21.65-.4.02-.8.03-1.19.03h0Z"
      stroke="none"
      fill="#000"
      data-ci-fill="true"
      data-ci-stroke="false"
  />
  <path
      d="m104.64,1h0c.1,0,.22.01.34.04l.08.02h.09c1.6.1,2.68.43,3.1.97.47.6.27,1.7.06,2.87-.39,2.17-.99,5.46,3.66,6.57.38.1.75.15,1.11.15,2.16,0,3.29-1.72,4.21-3.11.8-1.22,1.35-1.96,2.09-1.96.46,0,1.32.27,2.78,1.56l.07.06.08.05c.36.21.45.42.48.56.2.83-.78,2.37-1.42,3.39-.36.56-.67,1.06-.87,1.5-.55,1.03-.46,2.32.25,3.54.93,1.59,2.66,2.71,4.21,2.71.53,0,1.03-.13,1.5-.38,0,0,1.96-1.13,3.03-1.74l.02.02.68-.42c.22-.13.42-.2.59-.2.75,0,1.55,1.25,2.14,2.16.14.22.27.43.43.65.25.34.25.56.23.7-.13.84-1.62,1.89-2.61,2.58-.55.38-1.02.72-1.37,1.05-1.16.94-1.49,2.65-.86,4.46.56,1.62,1.94,3.26,3.77,3.26.11,0,.22,0,.35-.02l4.24-.55h.04s.04-.02.04-.02c.06-.01.11-.02.16-.02.73,0,1.52,1.37,1.66,2.87.07.75-.03,2.05-.82,2.2h-.04s-.04.02-.04.02c0,0-4.06,1.09-4.14,1.11-1.55.44-2.56,2.07-2.56,4.15,0,2.08,1.02,3.78,2.57,4.22.6.17,1.18.31,1.72.44,1.55.37,2.78.67,3.15,1.34.32.57.22,1.66-.29,3.26v.03s-.02.03-.02.03c-.19.79-.55,1.05-1.46,1.05-.59,0-1.27-.12-2-.25-.79-.14-1.6-.28-2.38-.28-1.61,0-2.72.66-3.28,1.96-1.13,1.62-1.37,3.11-.71,4.43.56,1.11,1.62,1.88,2.66,2.62,1.84,1.32,2.48,1.94,1.89,3.18-1.14,2.26-1.91,2.52-2.39,2.52-.74,0-1.76-.62-2.93-1.34-.46-.28-.95-.58-1.48-.88-.46-.26-.96-.39-1.5-.39-1.52,0-3.23,1.1-4.16,2.69-.74,1.26-.84,2.58-.25,3.63,0,0,1.13,1.96,1.74,3.03l-.02.02.42.68c.51.83.09,1.41-1.96,2.73-.19.12-.37.24-.54.35-.28.12-.54.19-.77.19-.86,0-1.6-1.02-2.38-2.11-1.02-1.42-2.17-3.02-4.15-3.02-.91,0-1.86.35-2.89,1.07-2.5,1.07-2.03,3.72-1.69,5.66.46,2.6.33,3.18-.8,3.46h-.04s-.04.02-.04.02c-.95.32-1.74.48-2.33.48-1.31,0-1.62-.69-2.27-3.4-.13-.53-.26-1.08-.42-1.66-.44-1.56-2.07-2.56-4.17-2.56s-3.77,1.03-4.21,2.57c0,0-.59,2.18-.91,3.37h-.02s-.19.78-.19.78c-.13.54-.38.85-1.29.85-.63,0-1.37-.16-2.03-.3-.25-.06-.5-.11-.76-.16-.42-.06-.57-.22-.66-.33-.5-.69-.19-2.48.02-3.67.11-.66.21-1.23.23-1.71.09-.9-.22-1.78-.9-2.54-.98-1.1-2.59-1.81-4.11-1.81-1.15,0-2.12.42-2.74,1.21l-2.61,3.39-.02.03-.02.03c-.06.1-.23.36-.81.36-1.17,0-2.83-1.04-3.41-2.14-.35-.65-.13-.98-.06-1.08l.02-.03.02-.03c.21-.36.43-.71.65-1.06,1.44-2.31,3.41-5.47-.56-8.1-.74-.54-1.52-.82-2.33-.82-1.41,0-2.62.82-3.68,1.54-.83.56-1.62,1.1-2.26,1.1-.75,0-1.55-.87-2.39-2.59l-.02-.04-.02-.04c-.6-.99-.28-1.5,1.88-3.01,1.62-1.13,3.84-2.68,2.8-5.23-.64-2.6-2.05-3.86-4.3-3.86-.76,0-1.52.14-2.25.27-.65.12-1.27.23-1.8.23-.73,0-1.84,0-2.04-3.39v-.05s0-.05,0-.05c-.18-1.14.31-1.49,2.89-2.06,1.94-.43,4.58-1.01,4.58-3.76.7-4.65-2.53-5.36-4.68-5.82-1.16-.25-2.26-.49-2.63-1.16-.33-.6-.23-1.71.29-3.23l.03-.09v-.1c.07-.37.14-.93,1.6-.93.75,0,1.64.15,2.42.29.66.11,1.23.21,1.72.23.1.01.2.02.3.02,1.81,0,3.18-1.62,3.74-3.22.65-1.85.31-3.59-.88-4.54-.49-.39-.97-.74-1.42-1.06-1.29-.94-2.31-1.68-2.4-2.44-.08-.64.43-1.62,1.51-2.9l.05-.06.04-.07c.25-.42.5-.51.79-.51.87,0,2.19.84,3.16,1.45.56.36,1.06.67,1.5.87.44.24.93.36,1.46.36,1.52,0,3.23-1.1,4.16-2.69.73-1.24.83-2.55.28-3.58-.21-.45-.53-.96-.87-1.49-.68-1.07-1.61-2.53-1.41-3.36.03-.14.12-.36.49-.59l.07-.04.06-.05c1.16-1,2.07-1.51,2.72-1.51.83,0,1.51.89,2.65,2.45.32.44.65.9,1.02,1.37.61.78,1.58,1.21,2.73,1.21,1.5,0,3.11-.71,4.1-1.82.69-.77,1-1.65.91-2.55-.02-.49-.12-1.09-.23-1.71-.22-1.25-.51-2.95-.02-3.65.09-.12.25-.29.68-.36h.08s.08-.04.08-.04c.95-.32,1.74-.48,2.33-.48,1.31,0,1.62.69,2.27,3.4.13.53.26,1.08.42,1.66.44,1.56,2.07,2.56,4.17,2.56s3.74-1.01,4.2-2.52c.17-.46.3-1.05.44-1.67.41-1.84.86-3.49,1.81-3.49m-6.92,64.73c2.06,0,4.19-.26,6.39-.77,14.95-4.09,18.78-16.55,17.51-25.98-1.36-10.15-9.11-21.06-22.9-21.06-2.06,0-4.19.26-6.39.77-14.95,4.09-18.78,16.55-17.51,25.98,1.36,10.15,9.11,21.07,22.9,21.07M104.64,0c-2.42,0-2.57,4.21-3.2,5.84-.35,1.22-1.8,1.83-3.25,1.83s-2.86-.6-3.2-1.83c-.89-3.22-.93-5.8-3.66-5.8-.69,0-1.55.17-2.64.53-3.01.48-1.32,4.9-1.27,6.77.2,1.78-2.1,3.3-4.01,3.3-.78,0-1.49-.25-1.95-.83-1.72-2.19-2.71-4.21-4.46-4.21-.88,0-1.94.51-3.38,1.75-2.6,1.6.65,5.03,1.42,6.74,1.05,1.89-1.41,4.82-3.55,4.82-.35,0-.7-.08-1.01-.26-1.2-.52-3.39-2.42-5.1-2.42-.65,0-1.22.27-1.65,1-3.67,4.34-.98,5.15,2.46,7.84,1.91,1.52.19,5.97-2.24,5.97-.08,0-.16,0-.23-.01-.96-.02-2.71-.52-4.2-.52-1.29,0-2.38.38-2.58,1.79-3.11,8.98,8.23,2.54,6.96,10.46.08,4.13-8.15,1.57-7.46,6.05.21,3.54,1.46,4.33,3.04,4.33,1.26,0,2.73-.5,4.05-.5,1.46,0,2.74.61,3.35,3.18,1.65,3.79-6.93,4.56-4.58,8.44,1.17,2.38,2.24,3.15,3.29,3.15,1.94,0,3.79-2.64,5.94-2.64.56,0,1.14.18,1.75.64,3.67,2.42,1.22,5.08-.38,7.84-1.33,1.97,1.97,4.78,4.3,4.78.68,0,1.28-.24,1.65-.81,0,0,2.61-3.39,2.61-3.39.45-.57,1.17-.82,1.95-.82,1.92,0,4.22,1.48,4.01,3.29-.03,1.8-1.76,6.35,1.27,6.77.83.15,1.94.47,2.93.47,1.05,0,1.96-.35,2.26-1.62,0,0,1.11-4.12,1.11-4.12.35-1.22,1.8-1.83,3.25-1.83s2.86.6,3.2,1.83c.89,3.22.93,5.8,3.66,5.8.69,0,1.55-.17,2.64-.53,4.4-1.08-1.12-7.7,2.73-9.21.94-.68,1.73-.95,2.4-.95,2.9,0,3.74,5.12,6.53,5.12.38,0,.8-.1,1.26-.31,1.43-.98,4.19-2.32,2.86-4.48,0,0-2.13-3.7-2.13-3.7-1.05-1.89,1.41-4.82,3.55-4.82.35,0,.7.08,1.01.26,2.01,1.14,3.52,2.35,4.9,2.35,1.12,0,2.15-.8,3.29-3.08,2.19-4.62-7.87-4.61-3.86-10.19.45-1.13,1.34-1.45,2.4-1.45,1.37,0,3.03.53,4.38.53,1.15,0,2.08-.39,2.43-1.81,1.72-5.41-1.06-5.13-5.27-6.3-2.42-.69-2.47-5.75,0-6.45,0,0,4.13-1.11,4.13-1.11,2.89-.53,1.66-7.05-1.02-7.05-.12,0-.25.01-.38.04l-4.24.55c-.07,0-.15.01-.22.01-2.4,0-4.2-4.43-2.25-5.97,1.3-1.25,5.73-3.24,3.89-5.69-.8-1.16-1.84-3.21-3.36-3.21-.35,0-.72.11-1.12.35,0,0-3.7,2.13-3.7,2.13-.31.17-.65.25-1,.25-2.13,0-4.64-2.89-3.57-4.81.72-1.65,4.06-5.19,1.42-6.75-1.48-1.31-2.58-1.81-3.44-1.81-2.76,0-3.15,5.07-6.29,5.07-.27,0-.55-.04-.86-.12-7.79-1.87,2.48-9.87-7-10.43C105,.02,104.81,0,104.64,0h0Zm-6.92,64.73c-24.59,0-31.98-37.74-5.13-45.08,2.14-.5,4.19-.74,6.12-.74,24.59,0,31.98,37.74,5.13,45.08-2.14.5-4.19.74-6.13.74h0Z"
      stroke="none"
      fill="#000"
      data-ci-fill="true"
      data-ci-stroke="false"
  />
</svg>