<svg xmlns="http://www.w3.org/2000/svg" viewBox="0 0 150 150">
  <path
      d="m146.22,68.67l-7.55-.5c-1.88-.13-3.41-1.53-3.72-3.39-.19-1.1-.4-2.19-.65-3.27-.42-1.83.46-3.71,2.15-4.55l6.78-3.35c1.91-.95,2.77-3.21,1.95-5.19l-1.75-4.23c-.82-1.97-3.02-2.97-5.04-2.29l-7.17,2.43c-1.78.6-3.73-.11-4.73-1.7-.59-.94-1.21-1.87-1.86-2.77-1.09-1.54-1-3.61.24-5.03l4.99-5.7c1.41-1.61,1.32-4.03-.18-5.54l-3.24-3.24c-1.51-1.51-3.93-1.59-5.54-.18l-5.7,4.99c-1.42,1.24-3.49,1.33-5.03.24-.91-.64-1.83-1.26-2.77-1.86-1.59-1-2.3-2.95-1.7-4.73l2.43-7.17c.68-2.02-.32-4.23-2.29-5.04l-4.23-1.75c-1.97-.82-4.24.04-5.19,1.95l-3.35,6.78c-.83,1.69-2.71,2.56-4.55,2.15-1.08-.25-2.17-.46-3.28-.65-1.86-.32-3.26-1.84-3.39-3.72l-.5-7.55c-.14-2.13-1.91-3.78-4.05-3.78h-4.58c-2.13,0-3.9,1.65-4.05,3.78l-.5,7.55c-.13,1.88-1.53,3.41-3.39,3.72-1.1.19-2.19.4-3.28.65-1.83.42-3.71-.46-4.55-2.15l-3.35-6.78c-.95-1.91-3.21-2.77-5.19-1.95l-4.23,1.75c-1.97.82-2.97,3.02-2.29,5.04l2.43,7.17c.6,1.78-.11,3.73-1.7,4.73-.94.59-1.87,1.21-2.77,1.86-1.54,1.09-3.61,1-5.03-.24l-5.7-4.99c-1.61-1.41-4.03-1.32-5.54.18l-3.24,3.24c-1.51,1.51-1.59,3.93-.18,5.54l4.99,5.7c1.24,1.42,1.33,3.49.24,5.03-.64.91-1.26,1.83-1.86,2.77-1,1.59-2.95,2.3-4.73,1.7l-7.17-2.43c-2.02-.68-4.23.32-5.04,2.29l-1.75,4.23c-.82,1.97.04,4.24,1.95,5.19l6.78,3.35c1.69.83,2.56,2.71,2.15,4.55-.25,1.08-.46,2.17-.65,3.27-.31,1.86-1.84,3.26-3.72,3.39l-7.55.5c-2.13.14-3.78,1.91-3.78,4.05v4.58c0,2.13,1.65,3.9,3.78,4.05l7.55.5c1.88.13,3.41,1.53,3.72,3.39.19,1.1.4,2.19.65,3.28.42,1.83-.46,3.71-2.15,4.55l-6.78,3.35c-1.91.95-2.77,3.21-1.95,5.19l1.75,4.23c.82,1.97,3.02,2.97,5.04,2.29l7.17-2.43c1.78-.6,3.73.11,4.73,1.7.59.94,1.21,1.87,1.86,2.77,1.09,1.54,1,3.61-.24,5.03l-4.99,5.7c-1.41,1.61-1.32,4.03.18,5.54l3.24,3.24c1.51,1.51,3.93,1.59,5.54.18l5.7-4.99c1.42-1.24,3.49-1.33,5.03-.24.91.64,1.83,1.26,2.77,1.86,1.59,1,2.3,2.95,1.7,4.73l-2.43,7.17c-.68,2.02.32,4.23,2.29,5.04l4.23,1.75c1.97.82,4.24-.04,5.19-1.95l3.35-6.78c.83-1.69,2.71-2.56,4.55-2.15,1.08.25,2.17.46,3.28.65,1.86.32,3.26,1.84,3.39,3.72l.5,7.55c.14,2.13,1.91,3.78,4.05,3.78h4.58c2.13,0,3.9-1.65,4.05-3.78l.5-7.55c.13-1.88,1.53-3.41,3.39-3.72,1.1-.19,2.19-.4,3.28-.65,1.83-.42,3.71.46,4.55,2.15l3.35,6.78c.95,1.91,3.21,2.77,5.19,1.95l4.23-1.75c1.97-.82,2.97-3.02,2.29-5.04l-2.43-7.17c-.6-1.78.11-3.73,1.7-4.73.94-.59,1.87-1.21,2.77-1.86,1.54-1.09,3.61-1,5.03.24l5.7,4.99c1.61,1.41,4.03,1.32,5.54-.18l3.24-3.24c1.51-1.51,1.59-3.93.18-5.54l-4.99-5.7c-1.24-1.42-1.33-3.49-.24-5.03.64-.91,1.26-1.83,1.86-2.77,1-1.59,2.95-2.3,4.73-1.7l7.17,2.43c2.02.68,4.23-.32,5.04-2.29l1.75-4.23c.82-1.97-.04-4.24-1.95-5.19l-6.78-3.35c-1.69-.83-2.56-2.71-2.15-4.55.25-1.08.46-2.17.65-3.28.32-1.86,1.84-3.26,3.72-3.39l7.55-.5c2.13-.14,3.78-1.91,3.78-4.05v-4.58c0-2.13-1.65-3.9-3.78-4.05Zm-69.11,46.82c-24.06,1.22-43.82-18.54-42.6-42.6,1.04-20.6,17.78-37.33,38.38-38.38,24.06-1.22,43.82,18.54,42.6,42.6-1.04,20.6-17.78,37.33-38.38,38.38Z"
      stroke="none"
      fill="#000"
      data-ci-fill="true"
      data-ci-stroke="false"
  />
</svg>