<svg id="a" data-name="Solid" xmlns="http://www.w3.org/2000/svg" viewBox="0 0 140 140">
    <rect
        x=".5"
        y=".5"
        width="139"
        height="139"
        rx="9.5"
        ry="9.5"
        stroke="none"
        fill="#000"
        data-ci-fill="true"
        data-ci-stroke="false"
    />
    <path
        d="m80.74,90.67l-3.65-.24c-.91-.06-1.65-.74-1.8-1.64-.09-.53-.2-1.06-.31-1.58-.2-.89.22-1.8,1.04-2.2l3.28-1.62c.93-.46,1.34-1.55.94-2.51l-.85-2.04c-.4-.95-1.46-1.44-2.44-1.11l-3.47,1.17c-.86.29-1.8-.05-2.29-.82-.29-.46-.59-.9-.9-1.34-.53-.74-.49-1.75.11-2.43l2.41-2.76c.68-.78.64-1.95-.09-2.68l-1.57-1.57c-.73-.73-1.9-.77-2.68-.09l-2.76,2.41c-.69.6-1.69.64-2.43.11-.44-.31-.89-.61-1.34-.9-.77-.49-1.11-1.43-.82-2.29l1.17-3.47c.33-.98-.15-2.04-1.11-2.44l-2.05-.85c-.95-.4-2.05.02-2.51.94l-1.62,3.28c-.4.82-1.31,1.24-2.2,1.04-.52-.12-1.05-.22-1.58-.31-.9-.15-1.58-.89-1.64-1.8l-.24-3.65c-.07-1.03-.92-1.83-1.96-1.83h-2.21c-1.03,0-1.89.8-1.96,1.83l-.24,3.65c-.06.91-.74,1.65-1.64,1.8-.53.09-1.06.2-1.58.31-.89.2-1.8-.22-2.2-1.04l-1.62-3.28c-.46-.93-1.55-1.34-2.51-.94l-2.05.85c-.95.4-1.44,1.46-1.11,2.44l1.17,3.47c.29.86-.05,1.8-.82,2.29-.46.29-.9.59-1.34.9-.74.53-1.75.49-2.43-.11l-2.76-2.41c-.78-.68-1.95-.64-2.68.09l-1.57,1.57c-.73.73-.77,1.9-.09,2.68l2.41,2.76c.6.69.64,1.69.11,2.43-.31.44-.61.89-.9,1.34-.49.77-1.43,1.11-2.29.82l-3.47-1.17c-.98-.33-2.05.15-2.44,1.11l-.85,2.04c-.4.95.02,2.05.94,2.51l3.28,1.62c.82.4,1.24,1.31,1.04,2.2-.12.52-.22,1.05-.31,1.58-.15.9-.89,1.58-1.8,1.64l-3.65.24c-1.03.07-1.83.92-1.83,1.96v2.21c0,1.03.8,1.89,1.83,1.96l3.65.24c.91.06,1.65.74,1.8,1.64.09.53.2,1.06.31,1.58.2.89-.22,1.8-1.04,2.2l-3.28,1.62c-.93.46-1.34,1.55-.94,2.51l.85,2.04c.4.95,1.46,1.44,2.44,1.11l3.47-1.17c.86-.29,1.8.05,2.29.82.29.46.59.9.9,1.34.53.74.49,1.75-.11,2.43l-2.41,2.76c-.68.78-.64,1.95.09,2.68l1.57,1.57c.73.73,1.9.77,2.68.09l2.76-2.41c.69-.6,1.69-.64,2.43-.11.44.31.89.61,1.34.9.77.49,1.11,1.43.82,2.29l-1.17,3.47c-.33.98.15,2.04,1.11,2.44l2.05.85c.95.4,2.05-.02,2.51-.94l1.62-3.28c.4-.82,1.31-1.24,2.2-1.04.52.12,1.05.22,1.58.31.9.15,1.58.89,1.64,1.8l.24,3.65c.07,1.03.92,1.83,1.96,1.83h2.21c1.03,0,1.89-.8,1.96-1.83l.24-3.65c.06-.91.74-1.65,1.64-1.8.53-.09,1.06-.2,1.58-.31.89-.2,1.8.22,2.2,1.04l1.62,3.28c.46.93,1.55,1.34,2.51.94l2.05-.85c.95-.4,1.44-1.46,1.11-2.44l-1.17-3.47c-.29-.86.05-1.8.82-2.29.46-.29.9-.59,1.34-.9.74-.53,1.75-.49,2.43.11l2.76,2.41c.78.68,1.95.64,2.68-.09l1.57-1.57c.73-.73.77-1.9.09-2.68l-2.41-2.76c-.6-.69-.64-1.69-.11-2.43.31-.44.61-.89.9-1.34.49-.77,1.43-1.11,2.29-.82l3.47,1.17c.98.33,2.05-.15,2.44-1.11l.85-2.04c.4-.95-.02-2.05-.94-2.51l-3.28-1.62c-.82-.4-1.24-1.31-1.04-2.2.12-.52.22-1.05.31-1.58.15-.9.89-1.58,1.8-1.64l3.65-.24c1.03-.07,1.83-.92,1.83-1.96v-2.21c0-1.03-.8-1.89-1.83-1.96Zm-33.43,22.64c-11.64.59-21.2-8.97-20.61-20.6.5-9.96,8.6-18.06,18.57-18.56,11.64-.59,21.2,8.97,20.61,20.6-.5,9.96-8.6,18.06-18.57,18.56Z"
        stroke="none"
        fill="#fff"
        data-ci-fill="true"
        data-ci-stroke="false"
    />
    <path
        d="m127.38,36.13l-3.63.47c-2.15.24-3.84-3.75-2.12-5.11,1.11-1.07,4.91-2.78,3.34-4.87-.84-1.22-1.99-3.59-3.84-2.45,0,0-3.17,1.83-3.17,1.83-1.89,1.05-4.99-1.99-3.91-3.91.62-1.42,3.48-4.45,1.22-5.78-5.68-5-4.72,3.81-9.08,2.7-6.68-1.6,2.13-8.46-6-8.94-2.54-.6-2.66,3.44-3.23,4.95-.59,2.07-4.93,2.12-5.53,0-.96-3.46-.77-6.05-5.4-4.52-2.58.42-1.14,4.2-1.09,5.81.24,2.15-3.75,3.84-5.11,2.11-2.21-2.83-3.03-5.3-6.72-2.11-2.23,1.37.56,4.31,1.22,5.78,1.05,1.89-1.99,4.98-3.91,3.91-1.42-.61-4.45-3.48-5.79-1.22-3.14,3.72-.84,4.41,2.11,6.72,1.69,1.34.06,5.36-2.12,5.1-1.54-.03-5.44-1.51-5.81,1.09-2.66,7.7,7.05,2.18,5.97,8.97.07,3.54-6.99,1.34-6.4,5.18.49,8.13,7.35-.69,8.95,6.01,1.41,3.25-5.94,3.91-3.93,7.23,3.33,6.79,5.81-1.71,9.42.98,3.14,2.08,1.05,4.36-.32,6.72-1.48,2.19,3.68,5.57,5.1,3.4,0,0,2.23-2.9,2.23-2.9,1.34-1.69,5.37-.06,5.11,2.12-.03,1.54-1.51,5.44,1.09,5.81,1.46.27,3.94,1.13,4.45-.98,0,0,.95-3.53.95-3.53.59-2.07,4.93-2.12,5.53,0,.96,3.46.77,6.05,5.4,4.52,3.78-.93-.96-6.6,2.34-7.89,4.78-3.43,4.75,5.17,8.73,3.31,1.22-.84,3.59-1.99,2.45-3.84,0,0-1.83-3.17-1.83-3.17-1.05-1.89,1.99-4.98,3.91-3.91,3.12,1.76,4.83,3.74,7.02-.62,1.87-3.96-6.75-3.95-3.31-8.73,1.3-3.29,6.97,1.43,7.89-2.34,1.48-4.64-.91-4.4-4.52-5.4-2.08-.59-2.12-4.93,0-5.53,0,0,3.54-.95,3.54-.95,2.59-.48,1.32-6.57-1.2-6.01Zm-28.37,28.73c-25.14,5.89-34.47-31.22-9.64-38.01,25.14-5.89,34.47,31.22,9.64,38.01Z"
        fill="#fff"
        stroke="none"
        data-ci-fill="true"
        data-ci-stroke="false"
    />
</svg>