<svg xmlns="http://www.w3.org/2000/svg" viewBox="0 0 140 140">
  <path
      d="m82.53,94.11l-4.26-.28c-1.06-.07-1.92-.86-2.1-1.91-.11-.62-.23-1.24-.37-1.85-.24-1.04.26-2.1,1.21-2.57l3.83-1.89c1.08-.53,1.56-1.81,1.1-2.93l-.99-2.39c-.46-1.11-1.71-1.68-2.85-1.29l-4.05,1.37c-1,.34-2.1-.06-2.67-.96-.34-.53-.69-1.05-1.05-1.57-.62-.87-.57-2.04.13-2.84l2.82-3.22c.79-.91.75-2.27-.1-3.12l-1.83-1.83c-.85-.85-2.22-.9-3.12-.1l-3.22,2.81c-.8.7-1.97.75-2.84.13-.51-.36-1.03-.71-1.57-1.05-.9-.57-1.3-1.66-.96-2.67l1.37-4.05c.39-1.14-.18-2.39-1.29-2.85l-2.39-.99c-1.11-.46-2.39.02-2.93,1.1l-1.89,3.83c-.47.95-1.53,1.45-2.57,1.21-.61-.14-1.23-.26-1.85-.37-1.05-.18-1.84-1.04-1.91-2.1l-.28-4.26c-.08-1.2-1.08-2.14-2.28-2.14h-2.58c-1.2,0-2.2.93-2.28,2.14l-.28,4.26c-.07,1.06-.86,1.92-1.91,2.1-.62.11-1.24.23-1.85.37-1.04.24-2.1-.26-2.57-1.21l-1.89-3.83c-.53-1.08-1.81-1.56-2.93-1.1l-2.39.99c-1.11.46-1.68,1.71-1.29,2.85l1.37,4.05c.34,1-.06,2.1-.96,2.67-.53.34-1.05.69-1.57,1.05-.87.62-2.04.57-2.84-.13l-3.22-2.81c-.91-.79-2.27-.75-3.12.1l-1.83,1.83c-.85.85-.9,2.22-.1,3.12l2.82,3.22c.7.8.75,1.97.13,2.84-.36.51-.71,1.03-1.05,1.57-.57.9-1.67,1.3-2.67.96l-4.05-1.37c-1.14-.39-2.39.18-2.85,1.29l-.99,2.39c-.46,1.11.02,2.39,1.1,2.93l3.83,1.89c.95.47,1.45,1.53,1.21,2.57-.14.61-.26,1.23-.37,1.85-.18,1.05-1.04,1.84-2.1,1.91l-4.26.28c-1.2.08-2.14,1.08-2.14,2.28v2.58c0,1.2.93,2.2,2.14,2.28l4.26.28c1.06.07,1.92.86,2.1,1.91.11.62.23,1.24.37,1.85.24,1.04-.26,2.1-1.21,2.57l-3.83,1.89c-1.08.53-1.56,1.81-1.1,2.93l.99,2.39c.46,1.11,1.71,1.68,2.85,1.29l4.05-1.37c1-.34,2.1.06,2.67.96.34.53.69,1.05,1.05,1.57.62.87.57,2.04-.13,2.84l-2.82,3.22c-.79.91-.75,2.27.1,3.12l1.83,1.83c.85.85,2.22.9,3.12.1l3.22-2.81c.8-.7,1.97-.75,2.84-.13.51.36,1.03.71,1.57,1.05.9.57,1.3,1.66.96,2.67l-1.37,4.05c-.39,1.14.18,2.39,1.29,2.85l2.39.99c1.11.46,2.39-.02,2.93-1.1l1.89-3.83c.47-.95,1.53-1.45,2.57-1.21.61.14,1.23.26,1.85.37,1.05.18,1.84,1.04,1.91,2.1l.28,4.26c.08,1.2,1.08,2.14,2.28,2.14h2.58c1.2,0,2.2-.93,2.28-2.14l.28-4.26c.07-1.06.86-1.92,1.91-2.1.62-.11,1.24-.23,1.85-.37,1.04-.24,2.1.26,2.57,1.21l1.89,3.83c.53,1.08,1.81,1.56,2.93,1.1l2.39-.99c1.11-.46,1.68-1.71,1.29-2.85l-1.37-4.05c-.34-1,.06-2.1.96-2.67.53-.34,1.05-.69,1.57-1.05.87-.62,2.04-.57,2.84.13l3.22,2.81c.91.79,2.27.75,3.12-.1l1.83-1.83c.85-.85.9-2.22.1-3.12l-2.82-3.22c-.7-.8-.75-1.97-.13-2.84.36-.51.71-1.03,1.05-1.57.57-.9,1.67-1.3,2.67-.96l4.05,1.37c1.14.39,2.39-.18,2.85-1.29l.99-2.39c.46-1.11-.02-2.39-1.1-2.93l-3.83-1.89c-.95-.47-1.45-1.53-1.21-2.57.14-.61.26-1.23.37-1.85.18-1.05,1.04-1.84,2.1-1.91l4.26-.28c1.2-.08,2.14-1.08,2.14-2.28v-2.58c0-1.2-.93-2.2-2.14-2.28Zm-39.01,26.42c-13.58.69-24.73-10.46-24.04-24.03.59-11.62,10.04-21.06,21.66-21.65,13.58-.69,24.73,10.46,24.04,24.03-.59,11.62-10.04,21.06-21.66,21.65Z"
      stroke="none"
      fill="#000"
      data-ci-fill="true"
      data-ci-stroke="false"
  />
  <path
      d="m136.94,30.48l-4.24.55c-2.5.29-4.48-4.37-2.47-5.96,1.3-1.25,5.73-3.24,3.89-5.69-.98-1.43-2.32-4.18-4.48-2.86,0,0-3.7,2.13-3.7,2.13-2.2,1.22-5.82-2.32-4.56-4.56.72-1.65,4.06-5.19,1.42-6.75-6.62-5.83-5.51,4.45-10.6,3.15-7.79-1.87,2.48-9.87-7-10.43-2.97-.7-3.1,4.02-3.77,5.77-.69,2.42-5.76,2.47-6.45,0-1.12-4.03-.89-7.06-6.3-5.27-3.01.48-1.32,4.9-1.27,6.77.29,2.5-4.38,4.48-5.96,2.47-2.58-3.3-3.53-6.18-7.84-2.46-2.6,1.6.65,5.03,1.42,6.74,1.22,2.2-2.32,5.81-4.56,4.56-1.65-.72-5.2-4.06-6.75-1.42-3.67,4.34-.98,5.15,2.46,7.84,1.97,1.57.07,6.26-2.47,5.96-1.8-.03-6.35-1.76-6.78,1.27-3.11,8.98,8.23,2.54,6.96,10.46.08,4.13-8.15,1.57-7.46,6.05.57,9.49,8.58-.8,10.44,7.01,1.65,3.79-6.93,4.56-4.58,8.44,3.88,7.92,6.78-1.99,10.99,1.14,3.67,2.42,1.22,5.08-.38,7.84-1.72,2.55,4.3,6.49,5.95,3.97,0,0,2.61-3.39,2.61-3.39,1.57-1.97,6.26-.07,5.96,2.47-.03,1.8-1.76,6.35,1.27,6.77,1.7.32,4.6,1.32,5.19-1.15,0,0,1.11-4.12,1.11-4.12.69-2.42,5.76-2.47,6.45,0,1.12,4.03.89,7.06,6.3,5.27,4.4-1.08-1.12-7.7,2.73-9.21,5.58-4,5.55,6.03,10.19,3.86,1.43-.98,4.19-2.32,2.86-4.48,0,0-2.13-3.7-2.13-3.7-1.22-2.2,2.32-5.81,4.56-4.56,3.64,2.06,5.63,4.37,8.19-.73,2.19-4.62-7.87-4.61-3.86-10.19,1.51-3.84,8.13,1.67,9.21-2.73,1.72-5.41-1.06-5.13-5.27-6.3-2.42-.69-2.47-5.75,0-6.45,0,0,4.13-1.11,4.13-1.11,3.02-.56,1.54-7.66-1.39-7.01Zm-33.1,33.52c-29.33,6.87-40.22-36.42-11.25-44.34,29.33-6.87,40.22,36.42,11.25,44.34Z"
      stroke="none"
      fill="#000"
      data-ci-fill="true"
      data-ci-stroke="false"
  />
</svg>