<svg xmlns="http://www.w3.org/2000/svg" viewBox="0 0 150 150">
  <path
      d="m77.29,2c1.08,0,1.98.84,2.05,1.92l.5,7.55c.19,2.8,2.26,5.09,5.05,5.56,1.06.18,2.12.39,3.17.63.45.1.9.15,1.36.15,2.32,0,4.4-1.29,5.43-3.36l3.35-6.78c.35-.71,1.06-1.14,1.84-1.14.27,0,.53.05.78.16l4.23,1.75c1,.41,1.5,1.54,1.16,2.56l-2.43,7.17c-.9,2.65.14,5.56,2.52,7.06.9.57,1.81,1.18,2.68,1.8,1.04.74,2.26,1.13,3.53,1.13,1.46,0,2.87-.53,3.97-1.49l5.7-4.99c.37-.33.85-.51,1.35-.51.55,0,1.07.21,1.45.6l3.24,3.24c.76.76.8,1.99.09,2.81l-4.99,5.7c-1.85,2.11-2,5.2-.36,7.5.62.88,1.23,1.78,1.8,2.68,1.12,1.78,3.04,2.84,5.13,2.84.66,0,1.31-.11,1.93-.32l7.17-2.43c.21-.07.44-.11.66-.11.83,0,1.58.5,1.9,1.27l1.75,4.23c.41,1-.02,2.15-.99,2.63l-6.78,3.35c-2.51,1.24-3.83,4.03-3.21,6.78.24,1.05.45,2.11.63,3.17.47,2.78,2.76,4.86,5.56,5.05l7.55.5c1.08.07,1.92.97,1.92,2.05v4.58c0,1.08-.84,1.98-1.92,2.05l-7.55.5c-2.8.19-5.09,2.26-5.56,5.05-.18,1.06-.39,2.12-.63,3.17-.63,2.75.69,5.54,3.21,6.78l6.78,3.35c.97.48,1.4,1.63.99,2.63l-1.75,4.23c-.32.77-1.06,1.27-1.9,1.27-.22,0-.44-.04-.66-.11l-7.17-2.43c-.62-.21-1.27-.32-1.93-.32-2.09,0-4.01,1.06-5.13,2.84-.57.9-1.18,1.81-1.8,2.68-1.64,2.3-1.49,5.39.36,7.5l4.99,5.7c.71.81.67,2.04-.09,2.81l-3.24,3.24c-.39.39-.9.6-1.45.6-.5,0-.98-.18-1.35-.51l-5.7-4.99c-1.1-.96-2.51-1.49-3.97-1.49-1.27,0-2.49.39-3.53,1.13-.88.62-1.78,1.23-2.68,1.8-2.38,1.5-3.42,4.41-2.52,7.06l2.43,7.17c.35,1.02-.16,2.14-1.16,2.56l-4.23,1.75c-.25.1-.52.16-.78.16-.79,0-1.49-.44-1.84-1.14l-3.35-6.78c-1.03-2.07-3.1-3.36-5.43-3.36-.46,0-.91.05-1.36.15-1.05.24-2.11.45-3.17.63-2.78.47-4.86,2.76-5.05,5.56l-.5,7.55c-.07,1.08-.97,1.92-2.05,1.92h-4.58c-1.08,0-1.98-.84-2.05-1.92l-.5-7.55c-.19-2.8-2.26-5.09-5.05-5.56-1.06-.18-2.12-.39-3.17-.63-.45-.1-.9-.15-1.36-.15-2.32,0-4.4,1.29-5.43,3.36l-3.35,6.78c-.35.71-1.06,1.14-1.84,1.14-.27,0-.53-.05-.78-.16l-4.23-1.75c-1-.41-1.5-1.54-1.16-2.56l2.43-7.17c.9-2.65-.14-5.56-2.52-7.06-.9-.57-1.81-1.18-2.68-1.8-1.04-.74-2.26-1.13-3.53-1.13-1.46,0-2.87.53-3.97,1.49l-5.7,4.99c-.37.33-.85.51-1.35.51-.55,0-1.07-.21-1.45-.6l-3.24-3.24c-.76-.76-.8-1.99-.09-2.8l4.99-5.7c1.85-2.11,2-5.2.36-7.5-.62-.88-1.23-1.78-1.8-2.68-1.12-1.78-3.04-2.84-5.13-2.84-.66,0-1.31.11-1.93.32l-7.17,2.43c-.21.07-.44.11-.66.11-.83,0-1.58-.5-1.9-1.27l-1.75-4.23c-.41-1,.02-2.15.99-2.63l6.78-3.35c2.51-1.24,3.83-4.03,3.21-6.78-.24-1.05-.45-2.11-.63-3.17-.47-2.78-2.76-4.86-5.56-5.05l-7.55-.5c-1.08-.07-1.92-.97-1.92-2.05v-4.58c0-1.08.84-1.98,1.92-2.05l7.55-.5c2.8-.19,5.09-2.26,5.56-5.05.18-1.06.39-2.12.63-3.17.62-2.75-.69-5.54-3.21-6.78l-6.78-3.35c-.97-.48-1.4-1.63-.99-2.63l1.75-4.23c.32-.77,1.06-1.27,1.9-1.27.22,0,.44.04.66.11l7.17,2.43c.62.21,1.27.32,1.93.32,2.09,0,4.01-1.06,5.13-2.84.57-.9,1.18-1.81,1.8-2.68,1.64-2.3,1.49-5.39-.36-7.5l-4.99-5.7c-.71-.81-.67-2.04.09-2.81l3.24-3.24c.39-.39.9-.6,1.45-.6.5,0,.98.18,1.35.51l5.7,4.99c1.1.96,2.51,1.49,3.97,1.49,1.27,0,2.49-.39,3.53-1.13.88-.62,1.78-1.23,2.68-1.8,2.38-1.5,3.42-4.41,2.52-7.06l-2.43-7.17c-.35-1.02.16-2.14,1.16-2.56l4.23-1.75c.25-.1.52-.16.78-.16.79,0,1.49.44,1.84,1.14l3.35,6.78c1.03,2.07,3.1,3.36,5.43,3.36.46,0,.91-.05,1.36-.15,1.05-.24,2.11-.45,3.17-.63,2.78-.47,4.86-2.76,5.05-5.56l.5-7.55c.07-1.08.97-1.92,2.05-1.92h4.58m-2.29,115.54c.73,0,1.48-.02,2.21-.06,21.49-1.09,39.18-18.78,40.27-40.27.6-11.79-3.54-22.99-11.65-31.52-8.11-8.53-19.06-13.23-30.83-13.23h0c-.73,0-1.48.02-2.21.06-21.49,1.09-39.18,18.78-40.27,40.27-.6,11.79,3.54,22.99,11.65,31.52,8.11,8.53,19.06,13.24,30.84,13.24M77.29,0h-4.58c-2.13,0-3.9,1.65-4.05,3.78l-.5,7.55c-.13,1.88-1.53,3.41-3.39,3.72-1.1.19-2.19.4-3.28.65-.31.07-.61.1-.91.1-1.52,0-2.94-.84-3.63-2.25l-3.35-6.78c-.7-1.42-2.14-2.26-3.64-2.26-.52,0-1.04.1-1.55.31l-4.23,1.75c-1.97.82-2.97,3.02-2.29,5.04l2.43,7.17c.6,1.78-.11,3.73-1.7,4.73-.94.59-1.87,1.21-2.77,1.86-.71.51-1.55.76-2.37.76-.95,0-1.9-.33-2.66-1l-5.7-4.99c-.77-.67-1.72-1-2.67-1-1.04,0-2.08.4-2.87,1.19l-3.24,3.24c-1.51,1.51-1.59,3.93-.18,5.54l4.99,5.7c1.24,1.42,1.33,3.49.24,5.03-.64.91-1.26,1.83-1.86,2.77-.76,1.21-2.07,1.91-3.44,1.91-.43,0-.86-.07-1.29-.21l-7.17-2.43c-.43-.15-.87-.21-1.3-.21-1.6,0-3.1.95-3.75,2.5l-1.75,4.23c-.82,1.97.04,4.24,1.95,5.19l6.78,3.35c1.69.83,2.56,2.71,2.15,4.55-.25,1.08-.46,2.17-.65,3.27-.31,1.86-1.84,3.26-3.72,3.39l-7.55.5c-2.13.14-3.78,1.91-3.78,4.05v4.58c0,2.13,1.65,3.9,3.78,4.05l7.55.5c1.88.13,3.41,1.53,3.72,3.39.19,1.1.4,2.19.65,3.28.42,1.83-.46,3.71-2.15,4.55l-6.78,3.35c-1.91.95-2.77,3.21-1.95,5.19l1.75,4.23c.64,1.55,2.15,2.5,3.75,2.5.43,0,.87-.07,1.3-.21l7.17-2.43c.43-.14.86-.21,1.29-.21,1.37,0,2.68.7,3.44,1.91.59.94,1.21,1.87,1.86,2.77,1.09,1.54,1,3.61-.24,5.03l-4.99,5.7c-1.41,1.61-1.32,4.03.18,5.54l3.24,3.24c.79.79,1.83,1.19,2.87,1.19.95,0,1.9-.33,2.67-1l5.7-4.99c.76-.66,1.7-1,2.66-1,.83,0,1.66.25,2.37.76.91.64,1.83,1.26,2.77,1.86,1.59,1,2.3,2.95,1.7,4.73l-2.43,7.17c-.68,2.02.32,4.23,2.29,5.04l4.23,1.75c.51.21,1.03.31,1.55.31,1.5,0,2.93-.84,3.64-2.26l3.35-6.78c.7-1.41,2.12-2.25,3.63-2.25.3,0,.61.03.91.1,1.08.25,2.17.46,3.28.65,1.86.32,3.26,1.84,3.39,3.72l.5,7.55c.14,2.13,1.91,3.78,4.05,3.78h4.58c2.13,0,3.9-1.65,4.05-3.78l.5-7.55c.13-1.88,1.53-3.41,3.39-3.72,1.1-.19,2.19-.4,3.28-.65.31-.07.61-.1.91-.1,1.52,0,2.94.84,3.63,2.25l3.35,6.78c.7,1.42,2.14,2.26,3.64,2.26.52,0,1.04-.1,1.55-.31l4.23-1.75c1.97-.82,2.97-3.02,2.29-5.04l-2.43-7.17c-.6-1.78.11-3.73,1.7-4.73.94-.59,1.87-1.21,2.77-1.86.71-.51,1.55-.76,2.37-.76.95,0,1.9.33,2.66,1l5.7,4.99c.77.67,1.72,1,2.67,1,1.04,0,2.08-.4,2.87-1.19l3.24-3.24c1.51-1.51,1.59-3.93.18-5.54l-4.99-5.7c-1.24-1.42-1.33-3.49-.24-5.03.64-.91,1.26-1.83,1.86-2.77.76-1.21,2.07-1.91,3.44-1.91.43,0,.86.07,1.29.21l7.17,2.43c.43.15.87.21,1.3.21,1.6,0,3.1-.95,3.75-2.5l1.75-4.23c.82-1.97-.04-4.24-1.95-5.19l-6.78-3.35c-1.69-.83-2.56-2.71-2.15-4.55.25-1.08.46-2.17.65-3.28.32-1.86,1.84-3.26,3.72-3.39l7.55-.5c2.13-.14,3.78-1.91,3.78-4.05v-4.58c0-2.13-1.65-3.9-3.78-4.05l-7.55-.5c-1.88-.13-3.41-1.53-3.72-3.39-.19-1.1-.4-2.19-.65-3.27-.42-1.83.46-3.71,2.15-4.55l6.78-3.35c1.91-.95,2.77-3.21,1.95-5.19l-1.75-4.23c-.64-1.55-2.15-2.5-3.75-2.5-.43,0-.87.07-1.3.21l-7.17,2.43c-.43.14-.86.21-1.29.21-1.37,0-2.68-.7-3.44-1.91-.59-.94-1.21-1.87-1.86-2.77-1.09-1.54-1-3.61.24-5.03l4.99-5.7c1.41-1.61,1.32-4.03-.18-5.54l-3.24-3.24c-.79-.79-1.83-1.19-2.87-1.19-.95,0-1.9.33-2.67,1l-5.7,4.99c-.76.66-1.7,1-2.66,1-.83,0-1.66-.25-2.37-.76-.91-.64-1.83-1.26-2.77-1.86-1.59-1-2.3-2.95-1.7-4.73l2.43-7.17c.68-2.02-.32-4.23-2.29-5.04l-4.23-1.75c-.51-.21-1.03-.31-1.55-.31-1.5,0-2.93.84-3.64,2.26l-3.35,6.78c-.7,1.41-2.12,2.25-3.63,2.25-.3,0-.61-.03-.91-.1-1.08-.25-2.17-.46-3.28-.65-1.86-.31-3.26-1.84-3.39-3.72l-.5-7.55c-.14-2.13-1.91-3.78-4.05-3.78h0Zm-2.29,115.54c-23.09,0-41.67-19.3-40.49-42.65,1.04-20.6,17.78-37.33,38.38-38.38.71-.04,1.41-.05,2.11-.05,23.09,0,41.67,19.3,40.49,42.65-1.04,20.6-17.78,37.33-38.38,38.38-.71.04-1.41.05-2.11.05h0Z"
      stroke="none"
      fill="#000"
      data-ci-fill="true"
      data-ci-stroke="false"
  />
</svg>