<svg
    xmlns="http://www.w3.org/2000/svg"
    viewBox="0 0 150 148"
    class="ci__gear"
    data-ci-type="solid"
>
  <path
      d="m146.216,67.751l-7.554-.497c-1.878-.124-3.408-1.51-3.723-3.341-.187-1.087-.404-2.165-.649-3.231-.417-1.81.459-3.665,2.145-4.488l6.784-3.31c1.913-.933,2.765-3.171,1.948-5.116l-1.751-4.172c-.817-1.946-3.022-2.933-5.044-2.258l-7.171,2.393c-1.78.594-3.728-.105-4.731-1.674-.595-.93-1.215-1.842-1.859-2.737-1.091-1.515-1.003-3.563.237-4.962l4.988-5.625c1.405-1.585,1.325-3.973-.184-5.462l-3.236-3.193c-1.509-1.489-3.93-1.569-5.536-.182l-5.701,4.922c-1.418,1.224-3.493,1.31-5.029.234-.907-.636-1.831-1.247-2.774-1.834-1.589-.99-2.298-2.911-1.696-4.668l2.425-7.076c.684-1.995-.317-4.171-2.289-4.977l-4.228-1.728c-1.972-.806-4.239.035-5.185,1.922l-3.355,6.694c-.834,1.664-2.714,2.528-4.549,2.117-1.081-.242-2.173-.456-3.275-.641-1.856-.311-3.261-1.82-3.386-3.673l-.504-7.453c-.142-2.101-1.911-3.734-4.045-3.734h-4.577c-2.134,0-3.903,1.633-4.045,3.734l-.504,7.453c-.125,1.853-1.53,3.363-3.386,3.673-1.102.185-2.194.399-3.275.641-1.835.411-3.715-.452-4.549-2.117l-3.355-6.694c-.946-1.888-3.214-2.728-5.185-1.922l-4.228,1.728c-1.972.806-2.973,2.982-2.289,4.977l2.425,7.076c.602,1.757-.107,3.678-1.696,4.668-.942.587-1.867,1.198-2.774,1.834-1.536,1.077-3.611.99-5.029-.234l-5.701-4.922c-1.606-1.387-4.027-1.307-5.536.182l-3.236,3.193c-1.509,1.489-1.59,3.878-.184,5.463l4.988,5.625c1.24,1.399,1.328,3.447.237,4.962-.644.894-1.264,1.807-1.859,2.737-1.003,1.568-2.951,2.268-4.731,1.674l-7.171-2.393c-2.022-.675-4.228.313-5.044,2.258l-1.751,4.172c-.817,1.946.035,4.183,1.948,5.116l6.784,3.31c1.687.823,2.562,2.678,2.145,4.488-.246,1.067-.462,2.144-.649,3.231-.315,1.831-1.845,3.217-3.723,3.341l-7.554.497c-2.13.14-3.784,1.885-3.784,3.991v4.516c0,2.106,1.655,3.851,3.784,3.991l7.554.497c1.878.124,3.408,1.51,3.723,3.341.187,1.087.404,2.165.65,3.231.417,1.81-.459,3.665-2.145,4.488l-6.784,3.31c-1.913.933-2.765,3.171-1.948,5.116l1.751,4.172c.817,1.946,3.022,2.933,5.044,2.258l7.171-2.393c1.78-.594,3.728.105,4.731,1.674.595.93,1.215,1.842,1.859,2.737,1.091,1.515,1.003,3.563-.237,4.962l-4.988,5.625c-1.405,1.585-1.325,3.973.184,5.462l3.236,3.193c1.509,1.489,3.93,1.569,5.536.182l5.701-4.922c1.418-1.224,3.493-1.31,5.029-.234.907.636,1.831,1.247,2.774,1.834,1.589.99,2.298,2.911,1.696,4.668l-2.425,7.076c-.684,1.995.317,4.171,2.289,4.977l4.228,1.728c1.972.806,4.239-.035,5.185-1.922l3.355-6.693c.834-1.664,2.714-2.528,4.549-2.117,1.081.242,2.173.456,3.275.641,1.856.311,3.261,1.82,3.386,3.673l.504,7.453c.142,2.101,1.911,3.734,4.045,3.734h4.577c2.134,0,3.903-1.633,4.045-3.734l.504-7.453c.125-1.853,1.53-3.363,3.386-3.673,1.102-.185,2.194-.399,3.275-.641,1.835-.411,3.715.452,4.549,2.117l3.355,6.693c.946,1.888,3.214,2.728,5.185,1.922l4.228-1.728c1.972-.806,2.973-2.982,2.289-4.977l-2.425-7.076c-.602-1.757.107-3.678,1.696-4.668.942-.587,1.867-1.198,2.774-1.834,1.536-1.076,3.611-.99,5.029.234l5.701,4.922c1.606,1.387,4.027,1.307,5.536-.182l3.236-3.193c1.509-1.489,1.59-3.878.184-5.462l-4.988-5.625c-1.24-1.399-1.328-3.447-.237-4.962.644-.894,1.264-1.807,1.859-2.737,1.003-1.568,2.951-2.268,4.731-1.674l7.171,2.393c2.022.675,4.228-.313,5.044-2.258l1.751-4.172c.817-1.946-.035-4.183-1.948-5.116l-6.784-3.31c-1.687-.823-2.562-2.678-2.145-4.488.246-1.067.462-2.144.65-3.231.315-1.831,1.845-3.217,3.723-3.341l7.554-.497c2.13-.14,3.784-1.885,3.784-3.991v-4.516c0-2.106-1.655-3.851-3.784-3.991Zm-69.106,46.196c-24.055,1.203-43.816-18.294-42.597-42.029,1.044-20.323,17.78-36.836,38.377-37.866,24.055-1.203,43.816,18.294,42.597,42.029-1.044,20.323-17.78,36.836-38.377,37.866Z"
      data-ci-fill="true"
      data-ci-stroke="false"
  />
</svg>