<svg xmlns="http://www.w3.org/2000/svg" viewBox="0 0 150 150">
  <rect
      x="5"
      y="5"
      width="140"
      height="140"
      rx="10"
      ry="10"
      stroke="none"
      fill="#000"
      data-ci-fill="true"
      data-ci-stroke="false"
  />
  <path
      d="m131.97,69.93l-6.04-.4c-1.5-.1-2.73-1.22-2.98-2.71-.15-.88-.32-1.76-.52-2.62-.33-1.47.37-2.97,1.72-3.64l5.43-2.68c1.53-.76,2.21-2.57,1.56-4.15l-1.4-3.38c-.65-1.58-2.42-2.38-4.04-1.83l-5.74,1.94c-1.42.48-2.98-.09-3.78-1.36-.48-.75-.97-1.49-1.49-2.22-.87-1.23-.8-2.89.19-4.02l3.99-4.56c1.12-1.28,1.06-3.22-.15-4.43l-2.59-2.59c-1.21-1.21-3.14-1.27-4.43-.15l-4.56,3.99c-1.13.99-2.79,1.06-4.02.19-.73-.52-1.47-1.01-2.22-1.49-1.27-.8-1.84-2.36-1.36-3.78l1.94-5.74c.55-1.62-.25-3.38-1.83-4.04l-3.38-1.4c-1.58-.65-3.39.03-4.15,1.56l-2.68,5.43c-.67,1.35-2.17,2.05-3.64,1.72-.86-.2-1.74-.37-2.62-.52-1.48-.25-2.61-1.48-2.71-2.98l-.4-6.04c-.11-1.7-1.53-3.03-3.24-3.03h-3.66c-1.71,0-3.12,1.32-3.24,3.03l-.4,6.04c-.1,1.5-1.22,2.73-2.71,2.98-.88.15-1.76.32-2.62.52-1.47.33-2.97-.37-3.64-1.72l-2.68-5.43c-.76-1.53-2.57-2.21-4.15-1.56l-3.38,1.4c-1.58.65-2.38,2.42-1.83,4.04l1.94,5.74c.48,1.42-.09,2.98-1.36,3.78-.75.48-1.49.97-2.22,1.49-1.23.87-2.89.8-4.02-.19l-4.56-3.99c-1.28-1.12-3.22-1.06-4.43.15l-2.59,2.59c-1.21,1.21-1.27,3.14-.15,4.43l3.99,4.56c.99,1.13,1.06,2.79.19,4.02-.52.73-1.01,1.47-1.49,2.22-.8,1.27-2.36,1.84-3.78,1.36l-5.74-1.94c-1.62-.55-3.38.25-4.04,1.83l-1.4,3.38c-.65,1.58.03,3.39,1.56,4.15l5.43,2.68c1.35.67,2.05,2.17,1.72,3.64-.2.86-.37,1.74-.52,2.62-.25,1.48-1.48,2.61-2.98,2.71l-6.04.4c-1.7.11-3.03,1.53-3.03,3.24v3.66c0,1.71,1.32,3.12,3.03,3.24l6.04.4c1.5.1,2.73,1.22,2.98,2.71.15.88.32,1.76.52,2.62.33,1.47-.37,2.97-1.72,3.64l-5.43,2.68c-1.53.76-2.21,2.57-1.56,4.15l1.4,3.38c.65,1.58,2.42,2.38,4.04,1.83l5.74-1.94c1.42-.48,2.98.09,3.78,1.36.48.75.97,1.49,1.49,2.22.87,1.23.8,2.89-.19,4.02l-3.99,4.56c-1.12,1.28-1.06,3.22.15,4.43l2.59,2.59c1.21,1.21,3.14,1.27,4.43.15l4.56-3.99c1.13-.99,2.79-1.06,4.02-.19.73.52,1.47,1.01,2.22,1.49,1.27.8,1.84,2.36,1.36,3.78l-1.94,5.74c-.55,1.62.25,3.38,1.83,4.04l3.38,1.4c1.58.65,3.39-.03,4.15-1.56l2.68-5.43c.67-1.35,2.17-2.05,3.64-1.72.86.2,1.74.37,2.62.52,1.48.25,2.61,1.48,2.71,2.98l.4,6.04c.11,1.7,1.53,3.03,3.24,3.03h3.66c1.71,0,3.12-1.32,3.24-3.03l.4-6.04c.1-1.5,1.22-2.73,2.71-2.98.88-.15,1.76-.32,2.62-.52,1.47-.33,2.97.37,3.64,1.72l2.68,5.43c.76,1.53,2.57,2.21,4.15,1.56l3.38-1.4c1.58-.65,2.38-2.42,1.83-4.04l-1.94-5.74c-.48-1.42.09-2.98,1.36-3.78.75-.48,1.49-.97,2.22-1.49,1.23-.87,2.89-.8,4.02.19l4.56,3.99c1.28,1.12,3.22,1.06,4.43-.15l2.59-2.59c1.21-1.21,1.27-3.14.15-4.43l-3.99-4.56c-.99-1.13-1.06-2.79-.19-4.02.52-.73,1.01-1.47,1.49-2.22.8-1.27,2.36-1.84,3.78-1.36l5.74,1.94c1.62.55,3.38-.25,4.04-1.83l1.4-3.38c.65-1.58-.03-3.39-1.56-4.15l-5.43-2.68c-1.35-.67-2.05-2.17-1.72-3.64.2-.86.37-1.74.52-2.62.25-1.48,1.48-2.61,2.98-2.71l6.04-.4c1.7-.11,3.03-1.53,3.03-3.24v-3.66c0-1.71-1.32-3.12-3.03-3.24Zm-55.28,37.46c-19.24.98-35.05-14.83-34.08-34.08.83-16.48,14.22-29.87,30.7-30.7,19.24-.98,35.05,14.83,34.08,34.08-.83,16.48-14.22,29.87-30.7,30.7Z"
      fill="#fff"
      stroke="none"
      data-ci-fill="true"
      data-ci-stroke="false"
  />
</svg>