<svg xmlns="http://www.w3.org/2000/svg" viewBox="0 0 140 140">
    <path
        d="m115,62c4.41,0,8,3.59,8,8s-3.59,8-8,8H25c-4.41,0-8-3.59-8-8s3.59-8,8-8h90m0-2H25c-5.5,0-10,4.5-10,10s4.5,10,10,10h90c5.5,0,10-4.5,10-10s-4.5-10-10-10h0Z"
        stroke="none"
        fill="#000"
        data-ci-fill="true"
        data-ci-stroke="false"
    />
    <path
        d="m115,97c4.41,0,8,3.59,8,8s-3.59,8-8,8H25c-4.41,0-8-3.59-8-8s3.59-8,8-8h90m0-2H25c-5.5,0-10,4.5-10,10s4.5,10,10,10h90c5.5,0,10-4.5,10-10s-4.5-10-10-10h0Z"
        stroke="none"
        fill="#000"
        data-ci-fill="true"
        data-ci-stroke="false"
    />
    <path
        d="m115,27c4.41,0,8,3.59,8,8s-3.59,8-8,8H25c-4.41,0-8-3.59-8-8s3.59-8,8-8h90m0-2H25c-5.5,0-10,4.5-10,10h0c0,5.5,4.5,10,10,10h90c5.5,0,10-4.5,10-10h0c0-5.5-4.5-10-10-10h0Z"
        stroke="none"
        fill="#000"
        data-ci-fill="true"
        data-ci-stroke="false"
    />
</svg>