<svg xmlns="http://www.w3.org/2000/svg" viewBox="0 0 140 140">
    <path
        d="m25,79.5c-5.24,0-9.5-4.26-9.5-9.5s4.26-9.5,9.5-9.5h90c5.24,0,9.5,4.26,9.5,9.5s-4.26,9.5-9.5,9.5H25Z"
        stroke="none"
        fill="#000"
        data-ci-fill="true"
        data-ci-stroke="false"
    />
    <path
        d="m25,114.5c-5.24,0-9.5-4.26-9.5-9.5s4.26-9.5,9.5-9.5h90c5.24,0,9.5,4.26,9.5,9.5s-4.26,9.5-9.5,9.5H25Z"
        stroke="none"
        fill="#000"
        data-ci-fill="true"
        data-ci-stroke="false"
    />
    <path
        d="m25,44.5c-5.24,0-9.5-4.26-9.5-9.5s4.26-9.5,9.5-9.5h90c5.24,0,9.5,4.26,9.5,9.5s-4.26,9.5-9.5,9.5H25Z"
        stroke="none"
        fill="#000"
        data-ci-fill="true"
        data-ci-stroke="false"
    />
</svg>