<svg xmlns="http://www.w3.org/2000/svg" viewBox="0 0 140 140">
  <g>
    <path
        d="m10,139.5c-5.24,0-9.5-4.26-9.5-9.5V10C.5,4.76,4.76.5,10,.5h120c5.24,0,9.5,4.26,9.5,9.5v120c0,5.24-4.26,9.5-9.5,9.5H10Zm13.5-45c-4.96,0-9,4.04-9,9v3c0,4.96,4.04,9,9,9h93c4.96,0,9-4.04,9-9v-3c0-4.96-4.04-9-9-9H23.5Zm0-35c-4.96,0-9,4.04-9,9v3c0,4.96,4.04,9,9,9h93c4.96,0,9-4.04,9-9v-3c0-4.96-4.04-9-9-9H23.5Zm0-35c-4.96,0-9,4.04-9,9v3c0,4.96,4.04,9,9,9h93c4.96,0,9-4.04,9-9v-3c0-4.96-4.04-9-9-9H23.5Z"
        stroke="none"
        fill="#000"
        data-ci-fill="true"
        data-ci-stroke="false"
    />
    <path
        d="m130,1c4.96,0,9,4.04,9,9v120c0,4.96-4.04,9-9,9H10c-4.96,0-9-4.04-9-9V10C1,5.04,5.04,1,10,1h120M23.5,46h93c5.24,0,9.5-4.26,9.5-9.5v-3c0-5.24-4.26-9.5-9.5-9.5H23.5c-5.24,0-9.5,4.26-9.5,9.5v3c0,5.24,4.26,9.5,9.5,9.5m0,35h93c5.24,0,9.5-4.26,9.5-9.5v-3c0-5.24-4.26-9.5-9.5-9.5H23.5c-5.24,0-9.5,4.26-9.5,9.5v3c0,5.24,4.26,9.5,9.5,9.5m0,35h93c5.24,0,9.5-4.26,9.5-9.5v-3c0-5.24-4.26-9.5-9.5-9.5H23.5c-5.24,0-9.5,4.26-9.5,9.5v3c0,5.24,4.26,9.5,9.5,9.5M130,0H10C4.48,0,0,4.48,0,10v120c0,5.52,4.48,10,10,10h120c5.52,0,10-4.48,10-10V10c0-5.52-4.48-10-10-10h0ZM23.5,45c-4.67,0-8.5-3.83-8.5-8.5v-3c0-4.68,3.83-8.5,8.5-8.5h93c4.67,0,8.5,3.82,8.5,8.5v3c0,4.67-3.83,8.5-8.5,8.5H23.5Zm0,35c-4.67,0-8.5-3.83-8.5-8.5v-3c0-4.68,3.83-8.5,8.5-8.5h93c4.67,0,8.5,3.82,8.5,8.5v3c0,4.67-3.83,8.5-8.5,8.5H23.5Zm0,35c-4.67,0-8.5-3.83-8.5-8.5v-3c0-4.68,3.83-8.5,8.5-8.5h93c4.67,0,8.5,3.82,8.5,8.5v3c0,4.67-3.83,8.5-8.5,8.5H23.5Z"
        stroke="none"
        fill="#000"
        data-ci-fill="true"
        data-ci-stroke="false"
    />
  </g>
  <path
      d="m116.5,61c4.14,0,7.5,3.36,7.5,7.5v3c0,4.14-3.36,7.5-7.5,7.5H23.5c-4.14,0-7.5-3.36-7.5-7.5v-3c0-4.14,3.36-7.5,7.5-7.5h93m0-1H23.5c-4.67,0-8.5,3.82-8.5,8.5v3c0,4.67,3.83,8.5,8.5,8.5h93c4.67,0,8.5-3.83,8.5-8.5v-3c0-4.68-3.83-8.5-8.5-8.5h0Z"
      stroke="none"
      fill="#000"
      data-ci-fill="true"
      data-ci-stroke="false"
  />
  <path
      d="m116.5,96c4.14,0,7.5,3.36,7.5,7.5v3c0,4.14-3.36,7.5-7.5,7.5H23.5c-4.14,0-7.5-3.36-7.5-7.5v-3c0-4.14,3.36-7.5,7.5-7.5h93m0-1H23.5c-4.67,0-8.5,3.82-8.5,8.5v3c0,4.67,3.83,8.5,8.5,8.5h93c4.67,0,8.5-3.83,8.5-8.5v-3c0-4.68-3.83-8.5-8.5-8.5h0Z"
      stroke="none"
      fill="#000"
      data-ci-fill="true"
      data-ci-stroke="false"
  />
  <path
      d="m116.5,26c4.14,0,7.5,3.36,7.5,7.5v3c0,4.14-3.36,7.5-7.5,7.5H23.5c-4.14,0-7.5-3.36-7.5-7.5v-3c0-4.14,3.36-7.5,7.5-7.5h93m0-1H23.5c-4.67,0-8.5,3.82-8.5,8.5v3c0,4.67,3.83,8.5,8.5,8.5h93c4.67,0,8.5-3.83,8.5-8.5v-3c0-4.68-3.83-8.5-8.5-8.5h0Z"
      stroke="none"
      fill="#000"
      data-ci-fill="true"
      data-ci-stroke="false"
  />
</svg>