<svg
    xmlns="http://www.w3.org/2000/svg"
    viewBox="0 0 140 140"
    class="ci__search"
    data-ci-type="outline"
    stroke="#000"
    stroke-width="2"
    fill="none"
>
  <path
      d="m81.15,74.08c6.16-7.7,9.85-17.46,9.85-28.08C91,21.15,70.85,1,46,1S1,21.15,1,46s20.15,45,45,45c10.62,0,20.38-3.69,28.08-9.85,2.61-2.09,4.98-4.46,7.07-7.07Zm-35.15,11.92c-22.091,0-40-17.909-40-40S23.909,6,46,6s40,17.909,40,40-17.909,40-40,40Z"
      data-ci-fill="false"
      data-ci-stroke="true"
  />
  <path
      d="m137.5,130.43l-56.35-56.35c-2.09,2.61-4.46,4.98-7.07,7.07l56.35,56.35c1.94,1.94,5.13,1.94,7.07,0s1.94-5.13,0-7.07Z" fill="none"
      data-ci-fill="false"
      data-ci-stroke="true"
  />
  <circle
      cx="60"
      cy="20"
      r="5"
      data-ci-fill="false"
      data-ci-stroke="true"
  />
</svg>