<svg xmlns="http://www.w3.org/2000/svg" viewBox="0 0 141 141">
  <rect
      x=".5"
      y=".5"
      width="140"
      height="140"
      rx="12"
      ry="12"
      stroke="none"
      fill="#000"
      data-ci-fill="true"
      data-ci-stroke="false"
  />
  <g fill="none">
    <path
        d="m80.22,74.07c5.36-6.7,8.57-15.19,8.57-24.43,0-21.62-17.53-39.14-39.14-39.14S10.5,28.03,10.5,49.64s17.53,39.14,39.14,39.14c9.24,0,17.73-3.21,24.43-8.57,2.27-1.82,4.33-3.88,6.15-6.15Zm-30.58,10.37c-19.22,0-34.79-15.58-34.79-34.79S30.43,14.85,49.64,14.85s34.79,15.58,34.79,34.79-15.58,34.79-34.79,34.79Z"
        stroke="#fff"
        stroke-width="2"
        fill="none"
        data-ci-fill="false"
        data-ci-stroke="true"
    />
    <path
        d="m129.23,123.08l-49.02-49.02c-1.82,2.27-3.88,4.33-6.15,6.15l49.02,49.02c1.69,1.69,4.46,1.69,6.15,0s1.69-4.46,0-6.15Z"
        stroke="#fff"
        stroke-width="2"
        fill="none"
        data-ci-fill="false"
        data-ci-stroke="true"
    />
    <circle
        cx="49.64"
        cy="49.64"
        r="34.79"
        stroke="#fff"
        stroke-width="2"
        fill="none"
        data-ci-fill="false"
        data-ci-stroke="true"
    />
  </g>
  <circle
      cx="60.5"
      cy="27.5"
      r="4.25"
      stroke="#fff"
      stroke-width="2"
      fill="none"
      data-ci-fill="false"
      data-ci-stroke="true"
  />
</svg>