<svg xmlns="http://www.w3.org/2000/svg" viewBox="0 0 140 140">
  <path
      d="m132.07,8.73c.84,0,1.59.26,2.18.75l1.28,1.07c.79.66,1.21,1.69,1.18,2.89-.03,1.28-.55,2.6-1.48,3.7L44.06,125.78l-7.41,8.83c-1.15,1.37-2.74,2.19-4.26,2.19-.84,0-1.59-.26-2.18-.75l-5.11-4.29-20.62-17.31c-.79-.66-1.21-1.69-1.18-2.89.03-1.28.55-2.6,1.48-3.7l3.4-4.06c1.15-1.37,2.74-2.19,4.26-2.19.84,0,1.59.26,2.18.75l16.79,14.09c.95.8,2.15,1.22,3.46,1.22,2.1,0,4.26-1.08,5.79-2.9L127.81,10.91c1.15-1.37,2.74-2.19,4.26-2.19m0-1c-1.74,0-3.64.89-5.02,2.54L39.89,114.14c-1.39,1.65-3.28,2.54-5.02,2.54-1.04,0-2.03-.32-2.82-.98l-16.79-14.09c-.79-.66-1.78-.98-2.82-.98-1.74,0-3.64.89-5.02,2.54l-3.4,4.06c-2.21,2.64-2.29,6.22-.17,8l20.62,17.31,5.11,4.29c.79.66,1.78.98,2.82.98,1.74,0,3.64-.89,5.02-2.54l7.41-8.83L135.99,17.78c2.21-2.64,2.29-6.22.17-8l-1.28-1.07c-.79-.66-1.78-.98-2.82-.98h0Z"
      stroke="none"
      fill="#000"
      data-ci-fill="true"
      data-ci-stroke="false"
  />
</svg>