<svg xmlns="http://www.w3.org/2000/svg" viewBox="0 0 140 140">
  <path
      d="m133.13,1c1.57,0,3.04.61,4.15,1.72,1.11,1.11,1.72,2.58,1.72,4.15s-.61,3.04-1.72,4.15l-58.28,58.28-.71.71.71.71,58.28,58.28c2.29,2.29,2.29,6.01,0,8.3-1.11,1.11-2.58,1.72-4.15,1.72s-3.04-.61-4.15-1.72l-58.28-58.28-.71-.71-.71.71-58.28,58.28c-1.11,1.11-2.58,1.72-4.15,1.72s-3.04-.61-4.15-1.72c-2.29-2.29-2.29-6.01,0-8.3l58.28-58.28.71-.71-.71-.71L2.72,11.02c-1.11-1.11-1.72-2.58-1.72-4.15s.61-3.04,1.72-4.15c1.11-1.11,2.58-1.72,4.15-1.72s3.04.61,4.15,1.72l58.28,58.28.71.71.71-.71L128.98,2.72c1.11-1.11,2.58-1.72,4.15-1.72m0-1c-1.76,0-3.52.67-4.86,2.01l-58.28,58.28L11.72,2.01c-1.34-1.34-3.1-2.01-4.86-2.01S3.35.67,2.01,2.01h0c-2.68,2.68-2.68,7.03,0,9.71l58.28,58.28L2.01,128.28c-2.68,2.68-2.68,7.03,0,9.71h0c1.34,1.34,3.1,2.01,4.86,2.01s3.52-.67,4.86-2.01l58.28-58.28,58.28,58.28c1.34,1.34,3.1,2.01,4.86,2.01s3.52-.67,4.86-2.01h0c2.68-2.68,2.68-7.03,0-9.71l-58.28-58.28,58.28-58.28c2.68-2.68,2.68-7.03,0-9.71h0c-1.34-1.34-3.1-2.01-4.86-2.01h0Z"
      data-ci-fill="true"
      data-ci-stroke="false"
      fill="#000"
  />
</svg>