<svg xmlns="http://www.w3.org/2000/svg" viewBox="0 0 140 140">
  <path
      d="m137.99,2.01h0c-2.68-2.68-7.03-2.68-9.71,0l-58.28,58.28L11.72,2.01c-2.68-2.68-7.03-2.68-9.71,0h0c-2.68,2.68-2.68,7.03,0,9.71l58.28,58.28L2.01,128.28c-2.68,2.68-2.68,7.03,0,9.71h0c2.68,2.68,7.03,2.68,9.71,0l58.28-58.28,58.28,58.28c2.68,2.68,7.03,2.68,9.71,0h0c2.68-2.68,2.68-7.03,0-9.71l-58.28-58.28,58.28-58.28c2.68-2.68,2.68-7.03,0-9.71Z"
      data-ci-fill="true"
      data-ci-stroke="false"
      fill="#000"
  />
</svg>