<svg xmlns="http://www.w3.org/2000/svg" viewBox="0 0 140 140">
  <rect
      x="0" y="0"
      width="140" height="140"
      rx="10" ry="10"
      data-ci-fill="true"
      data-ci-stroke="false"
  />
  <path
      d="m128.28,11.72h0c-2.3-2.3-6.03-2.3-8.33,0l-49.95,49.95L20.05,11.72c-2.3-2.3-6.03-2.3-8.33,0h0c-2.3,2.3-2.3,6.03,0,8.33l49.95,49.95L11.72,119.95c-2.3,2.3-2.3,6.03,0,8.33h0c2.3,2.3,6.03,2.3,8.33,0l49.95-49.95,49.95,49.95c2.3,2.3,6.03,2.3,8.33,0h0c2.3-2.3,2.3-6.03,0-8.33l-49.95-49.95,49.95-49.95c2.3-2.3,2.3-6.03,0-8.33Z"
      fill="#fff"
      data-ci-fill="true"
      data-ci-stroke="false"
  />
</svg>